<svg xmlns="http://www.w3.org/2000/svg" viewBox="0 0 282.22 317.5"><style><![CDATA[.B{fill:#1a6d91}.C{fill:#196a8c}.D{fill:#1d79a0}.E{fill:#2495c5}.F{fill:#155773}.G{fill:#1b7195}.H{fill:#dfdfdf}.I{fill:#155976}.J{fill:#17607f}.K{fill:#186383}.L{fill:#196788}.M{fill:#155671}.N{fill:#29abe2}.O{fill:#ccc}.P{fill:#165c7a}]]></style><path fill="#013453" d="M226.16 12.96L17.3 42.32l-.4 223.04 42.57 40.04 206.65-29.04.42-225.43-40.37-37.97"/><g class="N"><path d="M63.03 71.78c-.95.14-1.86.36-2.74.67-6.75 2.67-11.83 10.48-11.84 18.95-.02 9.76 6.68 16.75 14.94 15.6 5-.7 9.46-4.27 12.2-9.14l-.98-.6 1.42-2.43.78.46c1-2.5 1.58-5.27 1.58-8.1.01-3.02-.63-5.78-1.76-8.1l-.13.13-1.53-1.93.38-.37a13.43 13.43 0 0 0-3.3-3.3 12.7 12.7 0 0 0-9-1.84m.35 32.5c-6.87.97-12.44-4.97-12.43-13.23.02-8.26 5.62-15.77 12.5-16.73 6.86-.97 12.44 4.97 12.42 13.23-.01 8.26-5.6 15.77-12.48 16.73"/><path d="M76.02 94.84l-1.42 2.43.98.6.53.3.7-1 12.74 8.02.97-1.66-14.5-8.68m13.13-29.6l-12.73 12.4-.84-.97-.24.24-.38.37 1.53 1.93.13-.13L89.9 66.2l-.74-.94m115.08-22.92l-.24.04.24.23v-.27m-.27.04l-57.7 8.1v2.7l56.68-7.97-.74-.7z"/><path d="M203.98 42.35l-.02.02-1.76 2.15.74.7 30.56 28.75v-1.4l2.27-.32-31.8-29.9m32.04 30.14v.03l.01-.01z"/><path d="M236.02 72.23l-.25.03-2.27.32v1.4l-.07 40.3 2.5-.36.08-41.42zm-36-21.05l-.24.03.24.23v-.26m-.27.03l-53.26 7.5v2.7l52.24-7.34-.75-.7z"/><path d="M199.75 51.2v.02l-1.78 2.15.75.7 18.35 17.26v-1.4l2.27-.32-19.58-18.42m19.82 18.65v.03l.02-.02z"/><path d="M219.58 69.6l-.24.03-2.27.32v1.4l-.04 17.98a7.09 7.09 0 0 1 2.52-.28l.03-19.43"/></g><path d="M218.1 91.78c-2.58.36-4.68 2.92-4.68 5.7s2.08 4.75 4.66 4.38c2.57-.36 4.67-2.9 4.68-5.7 0-2.77-2.1-4.74-4.66-4.38" class="O"/><path d="M218.1 89.07a7.1 7.1 0 0 0-1.06.24c-3.46 1.04-6.13 4.64-6.14 8.52 0 4.28 3.2 7.3 7.17 6.74 3.96-.55 7.2-4.48 7.2-8.76 0-3.74-2.45-6.52-5.72-6.78a6.54 6.54 0 0 0-1.45.04m-.02 12.8c-2.58.36-4.67-1.6-4.66-4.4 0-2.78 2.1-5.34 4.68-5.7 2.57-.36 4.66 1.6 4.66 4.4 0 2.78-2.1 5.33-4.68 5.7" class="N"/><path d="M199.77 81.57c-2.58.36-4.68 2.92-4.68 5.7 0 1.07.3 2.02.83 2.76l.7.66-.05.06a3.94 3.94 0 0 0 3.18.9c2.57-.36 4.67-2.92 4.68-5.7 0-2.78-2.1-4.74-4.66-4.38" class="O"/><path d="M199.77 78.86c-3.96.55-7.2 4.48-7.2 8.76 0 1.22.26 2.33.73 3.3l1.55-1.9 1.07 1a4.72 4.72 0 0 1-.83-2.76c0-2.78 2.1-5.34 4.68-5.7 2.57-.36 4.66 1.6 4.66 4.38s-2.1 5.34-4.68 5.7a3.94 3.94 0 0 1-3.18-.9l-1.78 2.17a6.05 6.05 0 0 0 4.95 1.44c3.96-.55 7.2-4.5 7.2-8.76 0-4.28-3.2-7.3-7.17-6.74" class="N"/><path d="M180.3 69.04c-2.58.36-4.68 2.92-4.7 5.7 0 2.78 2.1 4.74 4.66 4.38 2.58-.36 4.68-2.92 4.68-5.7.01-2.78-2.08-4.74-4.66-4.38" class="O"/><g class="N"><path d="M180.3 66.33c-3.96.55-7.2 4.48-7.2 8.76 0 3.74 2.46 6.52 5.72 6.8v-1.6l2.52-.36v1.7c3.45-1.05 6.12-4.65 6.13-8.53 0-4.28-3.2-7.3-7.17-6.74m-.03 12.8c-2.57.36-4.66-1.6-4.66-4.4 0-2.77 2.1-5.33 4.68-5.7 2.58-.35 4.67 1.6 4.66 4.4 0 2.77-2.1 5.33-4.68 5.7m5.64 20.78l-.24.03v.27l.24-.3m-.24.33l-.1 59.14 2.5-.36.1-58.04-.74.9zm-15.07 1.82l-.25.04.24.23v-.27m0 .3l-1.76 2.15-.75-.7-.2 101.8c1.7.4 1.44.3 2.52-.36l.2-102.88"/><path d="M194.85 89.02l-1.55 1.9-7.65 9.3.02.01 1.76 1.65.75-.9 8.44-10.28-.7-.66zm-13.5-9.1l-2.5.36v1.6l-.15 78.4 2.5-.35.15-80.02m-17.88 15.7a9.06 9.06 0 0 1-1.98 1.98l6.6 6.2.76.7 1.76-2.14v-.02-.01l-.24-.23-6.9-6.5"/></g><path d="M158.1 86.2c-2.58.36-4.68 2.92-4.68 5.7 0 2.77 2.1 4.74 4.66 4.38 2.58-.36 4.68-2.92 4.68-5.7s-2.08-4.75-4.66-4.38" class="O"/><path d="M158.1 83.47c-3.96.56-7.2 4.5-7.2 8.77-.01 4.27 3.2 7.3 7.17 6.74a7.65 7.65 0 0 0 3.4-1.4 9.17 9.17 0 0 0 3.8-7.36c0-4.28-3.2-7.3-7.18-6.75m-.02 12.8c-2.57.36-4.67-1.6-4.66-4.4 0-2.77 2.1-5.33 4.68-5.7 2.58-.36 4.67 1.6 4.66 4.4 0 2.77-2.1 5.33-4.68 5.7M52.98 123.8l-.1 54.8 14.5 12.34L88.4 188l-.05 29.33 12.18 11.46 26.76-3.76 12.8 12.05-.2 24.4a7.18 7.18 0 0 1 2.52-.27l.2-25.6-14.28-13.44-26.77 3.76-10.7-10.07.06-30.93-22.57 3.17-12.97-11.03.1-52.92c-.85-.08-1.7-.2-2.5-.34" class="N"/><path d="M140.94 263.95c-2.58.36-4.67 2.92-4.68 5.7 0 2.78 2.1 4.75 4.66 4.38 2.58-.36 4.67-2.9 4.68-5.7 0-2.77-2.08-4.74-4.66-4.38" class="O"/><path d="M140.95 261.24c-.35.05-.7.12-1.04.22-3.47 1.03-6.15 4.64-6.16 8.54-.01 4.28 3.2 7.3 7.17 6.75 3.96-.56 7.18-4.5 7.2-8.77 0-3.72-2.44-6.5-5.7-6.78a6.56 6.56 0 0 0-1.47.04m-.03 12.8c-2.57.36-4.66-1.6-4.66-4.4s2.1-5.34 4.68-5.7 4.67 1.6 4.66 4.4c0 2.78-2.1 5.33-4.68 5.7M41.9 118.95l-.12 66.96 24.6 23.15-.04 27.86 15.43 14.52a9.02 9.02 0 0 1 2.02-1.94l-14.94-14.05.05-27.86-24.6-23.16.12-63.8c-.87-.5-1.7-1.07-2.5-1.68" class="N"/><path d="M87.06 250.9c-2.57.36-4.67 2.9-4.68 5.7 0 2.78 2.1 4.75 4.67 4.4 2.57-.37 4.67-2.92 4.68-5.7 0-2.78-2.1-4.75-4.67-4.4" class="O"/><path d="M87.07 248.18c-1.18.17-2.3.63-3.28 1.32a9.18 9.18 0 0 0-3.92 7.45c0 4.27 3.2 7.3 7.17 6.74 3.96-.56 7.2-4.5 7.2-8.77s-3.2-7.3-7.17-6.74m-.02 12.8c-2.58.36-4.67-1.6-4.67-4.4 0-2.78 2.1-5.33 4.68-5.7 2.58-.36 4.67 1.6 4.67 4.4 0 2.78-2.1 5.33-4.68 5.7m160.5-20.85l-2.52.35-.02 13.25-8.6 14.3-56.74 7.98a8.03 8.03 0 0 1 .06 2.7l57.98-8.14 9.8-16.34.03-14.1m-17.57 2.47l-2.5.35-.02 10.64-5.02 6.1-23.54 3.3a8.17 8.17 0 0 1-.07 2.72l24.65-3.47 6.5-7.9.02-11.76" class="N"/><path d="M191.8 260.1c-2.58.37-4.68 2.92-4.68 5.7s2.08 4.75 4.66 4.4 4.68-2.92 4.68-5.7-2.1-4.75-4.66-4.4" class="O"/><path d="M191.8 257.4c-3.97.55-7.2 4.48-7.2 8.76-.01 4.27 3.2 7.3 7.17 6.74 3.46-.5 6.36-3.56 7.04-7.18a8.69 8.69 0 0 0 .07-2.72c-.5-3.66-3.5-6.1-7.1-5.6m-.02 12.8c-2.58.36-4.67-1.6-4.66-4.4 0-2.78 2.1-5.33 4.68-5.7 2.57-.36 4.67 1.6 4.66 4.4 0 2.78-2.1 5.34-4.68 5.7" class="N"/><path d="M172.65 273.52c-2.57.37-4.68 2.92-4.68 5.7s2.1 4.75 4.66 4.38c2.58-.36 4.68-2.9 4.68-5.7 0-2.77-2.08-4.74-4.66-4.38" class="O"/><path d="M172.65 270.8c-3.95.56-7.2 4.5-7.2 8.76 0 4.28 3.22 7.3 7.18 6.75 3.6-.5 6.6-3.8 7.1-7.6a8.64 8.64 0 0 0-.06-2.7c-.66-3.44-3.56-5.7-7.03-5.2m-.02 12.8c-2.57.36-4.67-1.6-4.66-4.4 0-2.78 2.1-5.33 4.68-5.7 2.58-.36 4.67 1.6 4.66 4.4 0 2.78-2.1 5.33-4.68 5.7M35.03 111.05l-5.74 7-.15 77.47 24.22 22.8-.62 27.1 10.9 10.24-.03 14.5a7.17 7.17 0 0 1 2.51-.35l.03-15.62-10.86-10.22.62-27.12-24.24-22.8.14-75.23 4.6-5.6a31.84 31.84 0 0 1-1.37-2.17" class="N"/><path d="M64.85 272.58c-2.58.36-4.67 2.92-4.68 5.7 0 2.78 2.1 4.75 4.66 4.38 2.58-.36 4.68-2.9 4.68-5.7 0-2.77-2.08-4.74-4.66-4.38" class="O"/><g class="N"><path d="M64.86 269.87c-.43.06-.85.16-1.26.3a9.1 9.1 0 0 0-5.94 8.46c0 4.28 3.2 7.3 7.17 6.75 3.96-.56 7.2-4.5 7.2-8.77 0-3.8-2.56-6.63-5.92-6.8-.4-.02-.83 0-1.25.06m-.03 12.8c-2.57.36-4.66-1.6-4.66-4.4 0-2.77 2.1-5.33 4.68-5.7s4.67 1.6 4.66 4.4c0 2.78-2.1 5.33-4.68 5.7M206.3 30.9l-60.68 8.53-4.6 5.58.38.36 2.8-.4 2.44-2.97 58.6-8.24 43.73 41.12-.1 8.77a7.2 7.2 0 0 1 2.51-.4l.12-9.83-45.2-42.52"/><path d="M250.22 83.32a7.2 7.2 0 0 0-1.35.33 9.11 9.11 0 0 0-5.84 8.43c-.01 4.27 3.2 7.3 7.16 6.74 3.96-.55 7.2-4.48 7.2-8.76 0-3.85-2.6-6.68-6-6.8-.4-.02-.77 0-1.17.06m-.02 12.8c-2.58.36-4.67-1.6-4.66-4.4 0-2.77 2.1-5.33 4.68-5.7 2.57-.36 4.67 1.6 4.66 4.4 0 2.77-2.1 5.33-4.68 5.7"/></g><path d="M250.22 86.03c-2.58.36-4.68 2.92-4.68 5.7s2.08 4.75 4.66 4.38c2.57-.36 4.67-2.92 4.68-5.7 0-2.78-2.1-4.74-4.66-4.38" class="O"/><path fill="#5c4126" d="M137.36 257.98l-3.22-1.75c.03 0 .05 0 .08.02l3.21 1.75-.07-.02"/><path fill="#5a3f24" d="M137.43 258l-3.2-1.75c.2.05.4.12.6.22l3.2 1.74c-.18-.1-.38-.16-.6-.2"/><path fill="#573d23" d="M138.03 258.2l-3.22-1.74.12.05 3.2 1.75a3.15 3.15 0 0 0-.11-.06"/><path fill="#49331e" d="M94.14 269.48l-3.2-1.75c-1.44-.78-2.13-2.65-1.55-4.55l3.22 1.75c-.58 1.9.1 3.76 1.54 4.55"/><path fill="#7a5632" d="M102.23 271.46l1.78.42 6.2-20.18-1.78-.42-6.2 20.18m5.5 1.28l1.8.4 6.2-20.18-1.8-.4-6.2 20.17m5.52 1.27l1.78.4 6.2-20.17-1.8-.4-6.2 20.17m24.1-16.03c1.97.45 3 2.63 2.33 4.84l-3.73 12.14a4.6 4.6 0 0 1-3.57 3.24 3.34 3.34 0 0 1-1.22-.04l-36.23-8.4c-1.96-.45-3-2.63-2.33-4.84l3.73-12.14a4.6 4.6 0 0 1 3.58-3.24c.4-.06.8-.05 1.2.04l26.12 6.05-6.2 20.18 2.38.54 6.2-20.18z"/><path fill="#5d4126" d="M129.6 256.2l-3.2-1.75 7.74 1.8 3.22 1.75zm-28.5-6.6l-3.2-1.75 26.1 6.04 3.22 1.75z"/><path fill="#4d3620" d="M92.6 264.93l-3.22-1.75 3.73-12.14 3.22 1.75z"/><path fill="#49331e" d="M96.33 252.8l-3.22-1.75.1-.25 3.2 1.75-.08.25"/><path fill="#4c351f" d="M96.4 252.54l-3.2-1.75c.08-.22.17-.43.28-.63l3.22 1.75c-.1.2-.2.4-.3.63"/><path fill="#4e3720" d="M96.7 251.9l-3.22-1.75.3-.5 3.22 1.75-.3.5"/><path fill="#513921" d="M97 251.42l-3.22-1.75.34-.43 3.22 1.75a4.8 4.8 0 0 0-.34.43"/><path fill="#543b22" d="M97.34 251l-3.22-1.76.4-.4 3.2 1.75-.38.4"/><path fill="#573d23" d="M97.72 250.6l-3.2-1.75c.14-.13.3-.25.46-.36l3.2 1.75c-.16.1-.3.23-.46.36"/><path fill="#5a3f24" d="M98.18 250.24l-3.21-1.75c.2-.14.4-.26.62-.36l3.21 1.75c-.21.1-.42.22-.62.36"/><path fill="#5c4126" d="M98.8 249.88l-3.21-1.75c.35-.17.72-.28 1.1-.33.4-.06.82-.05 1.22.05l3.21 1.74c-.4-.09-.8-.1-1.21-.04-.38.05-.75.16-1.1.33"/><path fill="#dcd01d" d="M127.24 255.64l2.37.54-6.2 20.18-2.37-.54z"/><path fill="#d8801a" d="M119.45 253.84l1.78.4-6.2 20.18-1.77-.4z"/><path fill="#cf181f" d="M113.94 252.56l1.78.4-6.2 20.18-1.78-.4z"/><path fill="#3a1d0a" d="M108.43 251.3l1.78.4-6.2 20.2-1.78-.42z"/><path fill="#a89f16" d="M127.24 255.64l-3.22-1.75 2.38.54 3.2 1.75z"/><path fill="#a56214" d="M119.45 253.84l-3.2-1.75 1.78.4 3.2 1.76z"/><path fill="#9e1318" d="M113.94 252.56l-3.2-1.75 1.78.4 3.2 1.75z"/><path fill="#2c1607" d="M108.43 251.3l-3.22-1.75 1.78.4 3.22 1.76z"/><path d="M234.36 50.9l-11.26-6.12a12.7 12.7 0 0 1 4.96.26l11.26 6.12c-1.55-.4-3.22-.5-4.96-.25"/><path d="M239.32 51.16l-11.26-6.12c.79.2 1.55.48 2.27.83L241.58 52a11.8 11.8 0 0 0-2.26-.84"/><path d="M241.58 52l-11.25-6.13.43.23 11.26 6.12-.44-.22m-14.94 28.54l-11.25-6.12c-4-2.18-6.66-6.64-6.65-12.15 0-2.1.4-4.16 1.1-6.1l11.26 6.12c-.7 1.93-1.1 4-1.1 6.1-.02 5.5 2.64 9.96 6.64 12.14M221.1 62.3l-11.26-6.12a17.42 17.42 0 0 1 1.09-2.41l11.25 6.12c-.4.78-.78 1.58-1.08 2.4"/><path d="M222.18 59.9l-11.25-6.13c.35-.66.74-1.3 1.17-1.9L223.35 58c-.42.6-.81 1.24-1.17 1.9"/><path d="M223.35 58l-11.25-6.13c.4-.57.83-1.12 1.3-1.63l11.25 6.12c-.46.52-.9 1.07-1.3 1.64"/><path d="M224.64 56.36l-11.25-6.12c.46-.53.95-1.02 1.46-1.48l11.26 6.12c-.52.46-1 .96-1.47 1.48"/><path d="M226.1 54.88l-11.25-6.12c.55-.5 1.13-.96 1.73-1.37l11.26 6.12a18.91 18.91 0 0 0-1.73 1.37m1.73-1.37l-11.26-6.12a15.5 15.5 0 0 1 2.33-1.35l11.26 6.13c-.8.38-1.6.83-2.33 1.34"/><path d="M230.17 52.17l-11.26-6.13a14.65 14.65 0 0 1 4.2-1.26l11.25 6.13c-1.46.2-2.86.63-4.2 1.26"/><path d="M234.5 76.47c5.28-.75 9.57-5.96 9.58-11.66s-4.26-9.72-9.54-8.98-9.56 5.96-9.57 11.66c-.02 5.7 4.25 9.72 9.53 8.98m-.14-25.56c7.92-1.12 14.33 4.9 14.3 13.46-.01 8.55-6.45 16.38-14.37 17.5s-14.32-4.9-14.3-13.46c.01-8.55 6.44-16.38 14.36-17.5"/><path fill="#9c9c9c" d="M234.54 55.83c5.28-.74 9.55 3.28 9.54 8.98 0 5.7-4.3 10.9-9.58 11.66-5.28.74-9.55-3.28-9.54-8.98.02-5.7 4.3-10.92 9.58-11.66"/><path d="M203 36.73l-11.26-6.12c1.74-.25 3.4-.15 4.96.25l11.25 6.12c-1.54-.4-3.2-.5-4.95-.25"/><path d="M207.95 36.98l-11.25-6.12c.8.2 1.54.48 2.26.84l11.26 6.12a12.58 12.58 0 0 0-2.27-.84m2.27.84l-11.26-6.12.44.22 10.82 5.9"/><path fill="#9c9c9c" d="M203.18 41.66c5.28-.75 9.55 3.27 9.54 8.97 0 5.7-4.3 10.92-9.58 11.66s-9.55-3.27-9.54-8.97 4.3-10.92 9.58-11.66"/><path d="M195.28 66.37l-11.25-6.13c-4-2.18-6.67-6.64-6.66-12.14 0-2.1.4-4.17 1.1-6.1l11.27 6.13c-.7 1.93-1.1 4-1.1 6.1-.02 5.5 2.64 9.96 6.64 12.14m-5.54-18.24L178.48 42c.3-.84.67-1.64 1.08-2.42l11.26 6.13a18.7 18.7 0 0 0-1.08 2.4"/><path d="M190.82 45.72l-11.26-6.13 1.17-1.9L192 43.83a18.24 18.24 0 0 0-1.17 1.9"/><path d="M192 43.82l-11.26-6.12a18.71 18.71 0 0 1 1.3-1.64l11.25 6.12c-.46.52-.9 1.07-1.3 1.64"/><path d="M193.28 42.18l-11.26-6.12a17.11 17.11 0 0 1 1.47-1.48l11.25 6.13-1.46 1.47"/><path d="M194.74 40.7l-11.25-6.12a17.33 17.33 0 0 1 1.73-1.37l11.26 6.12c-.6.42-1.18.88-1.74 1.38m1.74-1.38l-11.26-6.12c.74-.5 1.52-.96 2.33-1.34L198.8 38c-.8.38-1.6.83-2.33 1.34"/><path d="M198.8 38l-11.25-6.12a14.64 14.64 0 0 1 4.2-1.26L203 36.73c-1.46.2-2.87.64-4.2 1.26"/><path d="M203.14 62.3c5.28-.74 9.57-5.96 9.58-11.66s-4.26-9.72-9.54-8.97c-5.28.74-9.57 5.96-9.58 11.66 0 5.7 4.26 9.7 9.54 8.97M203 36.73c7.92-1.1 14.32 4.9 14.3 13.46 0 8.55-6.44 16.38-14.36 17.5-7.92 1.1-14.32-4.92-14.3-13.47 0-8.55 6.44-16.38 14.36-17.5"/><path d="M243.07 242.32l-3.2-1.75.03-16.18 3.2 1.75z" class="F"/><path d="M243.1 226.14l-3.2-1.75c0-2.02-.6-3.4-1.7-4l3.2 1.75c1.1.6 1.72 1.98 1.7 4" class="I"/><path d="M243.6 211.7l-3.22-1.76c1.36-.2 2.6-.13 3.7.15l3.22 1.75a9.53 9.53 0 0 0-3.7-.15" class="G"/><path d="M247.3 211.84l-3.22-1.75c.48.12.94.3 1.36.5l3.22 1.75a7.13 7.13 0 0 0-1.37-.5" class="B"/><path d="M248.66 212.34l-3.22-1.75.26.13 3.2 1.75a7.18 7.18 0 0 0-.25-.13" class="C"/><path d="M235.54 217.2l-3.22-1.74.1-.12 3.2 1.75-.08.12" class="J"/><path d="M235.62 217.1l-3.2-1.75c.4-.57.8-1.1 1.22-1.56l3.22 1.75c-.42.47-.83 1-1.23 1.56" class="K"/><path d="M236.85 215.53l-3.22-1.75c.37-.42.75-.8 1.14-1.16l3.22 1.75c-.4.35-.77.74-1.14 1.16" class="L"/><path d="M237.99 214.37l-3.22-1.75c.39-.35.79-.67 1.2-.95l3.21 1.75c-.4.28-.8.6-1.2.95" class="C"/><path d="M239.18 213.42l-3.2-1.75c.48-.33.98-.62 1.5-.87l3.2 1.75c-.5.25-1 .54-1.5.87" class="B"/><path d="M240.68 212.55l-3.2-1.75c.9-.43 1.88-.7 2.9-.86l3.22 1.75c-1.02.15-2 .43-2.9.86" class="G"/><path d="M235.25 203.53l-.03 14.7.28-.43c2.26-3.43 4.9-5.32 8.1-5.77 5.74-.8 9.15 2.72 9.14 9.42l-.03 19.18-9.3 1.3.03-15.84c0-3.17-1.53-4.93-4-4.58-2.56.36-4.2 2.6-4.22 5.74l-.02 15.84-9.3 1.3.07-39.55z" class="H"/><path d="M252.7 240.63l.03-19.18c.01-6.7-3.4-10.23-9.14-9.42-3.2.45-5.83 2.34-8.1 5.77l-.28.43.03-14.7-9.3 1.3-.07 39.56 9.3-1.3.03-15.84c.01-3.13 1.66-5.38 4.22-5.74 2.47-.35 4 1.4 4 4.58l-.03 15.85 9.3-1.3m-9.1-28.94c5.84-.82 9.47 2.9 9.45 9.72l-.03 19.5-9.94 1.4.03-16.18c0-3-1.37-4.6-3.68-4.3-2.4.34-3.9 2.4-3.9 5.35l-.03 16.18-9.94 1.4.08-40.24 9.93-1.4-.02 14.07c2.25-3.27 4.9-5.07 8.05-5.52" class="E"/><path d="M225.55 244.78l-3.2-1.75.07-40.24 3.22 1.75z" class="F"/><path d="M225.63 204.54l-3.22-1.75 9.94-1.4 3.2 1.76z" class="D"/><path fill="#1c759b" d="M221.4 235.8l-3.2-1.74.2-.15 3.22 1.75z"/><path d="M216.25 237.1l-3.17-1.72 3.22 1.75c-.02 0-.04-.02-.05-.03" class="C"/><path d="M216.3 237.14l-3.22-1.75c.1.05.2.1.32.12l3.22 1.75a1.64 1.64 0 0 1-.32-.12" class="B"/><path d="M216.62 237.26l-3.22-1.75c.33.08.73.1 1.2.02.72-.1 1.43-.32 2.18-.67l3.2 1.75c-.74.35-1.46.57-2.16.67-.48.07-.88.06-1.2-.02" class="G"/><path d="M220 236.6l-3.22-1.74c.46-.22.93-.5 1.4-.8l3.22 1.75a13.9 13.9 0 0 1-1.42.8" class="B"/><path d="M208.83 246.2l-3.22-1.75c-2.3-1.24-3.42-3.88-3.4-7.95l3.2 1.75c0 4.07 1.13 6.7 3.42 7.95" class="I"/><path d="M215.4 216.3l-3.22-1.75 6.38-.9 3.22 1.75z" class="D"/><path d="M205.42 238.26l-3.22-1.75.02-11.85 3.22 1.75zm-3.22-11.4l-3.22-1.75.02-8.7 3.22 1.75z" class="F"/><path d="M202.2 218.16l-3.2-1.75 3.24-.45 3.22 1.75z" class="D"/><path d="M217.82 237.62c-1.9.27-2.78-.6-2.78-2.73l.02-10.17 6.38-.9.02-8.02-6.38.9v-7.5l-9.3 1.3-.01 7.5-3.24.45-.02 8.02 3.24-.45-.02 12.2c-.01 6.47 2.95 9.2 9.04 8.34a14.5 14.5 0 0 0 6.53-2.54l.02-7.78a8.9 8.9 0 0 1-3.5 1.38m3.93-13.5l-6.38.9-.02 9.82c0 1.95.74 2.68 2.48 2.44a8.77 8.77 0 0 0 3.58-1.47l.22-.15-.01 8.5-.08.06a14.8 14.8 0 0 1-6.77 2.67c-6.3.9-9.36-1.94-9.35-8.64l.02-11.85-3.24.45v-8.7l3.25-.45.01-7.5 9.93-1.4v7.5l6.38-.9z" class="E"/><path d="M215.1 209.2l-.01 7.5 6.38-.9-.02 8.02-6.38.9-.02 10.17c0 2.13.88 3 2.78 2.73a8.9 8.9 0 0 0 3.5-1.38l-.02 7.78a14.5 14.5 0 0 1-6.53 2.54c-6.1.85-9.05-1.87-9.04-8.34l.02-12.2-3.24.46.02-8.02 3.24-.46.01-7.5z" class="H"/><path d="M205.47 210.22l-3.22-1.75 9.94-1.4 3.2 1.75z" class="D"/><path d="M205.46 217.7l-3.22-1.74.01-7.5 3.22 1.76z" class="F"/><path d="M185.3 241.46l-3.2-1.75 14.3-2 3.2 1.75z" class="D"/><path d="M184.58 231.33l-3.2-1.75 1.84-1.93 3.22 1.75-1.85 1.93" class="L"/><path d="M186.43 229.4l-3.22-1.75c.5-.56.92-1.08 1.26-1.58l3.22 1.75c-.35.5-.76 1.02-1.26 1.58" class="K"/><path d="M187.69 227.82l-3.22-1.75c.25-.35.46-.7.64-1.02l3.22 1.75c-.18.33-.4.67-.64 1.02" class="J"/><path d="M188.33 226.8l-3.22-1.75c.17-.32.3-.62.42-.92l3.21 1.75c-.1.3-.24.6-.41.92" class="P"/><path d="M188.74 225.88l-3.2-1.75c.24-.65.35-1.28.35-1.93 0-1.37-.52-2.36-1.44-2.86l3.22 1.75c.92.5 1.44 1.5 1.43 2.86 0 .65-.1 1.28-.35 1.93" class="I"/><path d="M171.22 252.42l-3.2-1.75.01-8.24 3.22 1.75z" class="F"/><path fill="#1b7094" d="M171.24 244.18l-3.22-1.75 13.35-12.85 3.2 1.75z"/><path d="M171.5 221.4l-3.2-1.76.95-1.4 3.2 1.75-.95 1.4" class="J"/><path d="M172.46 220l-3.2-1.75c.7-1 1.43-1.95 2.2-2.8l3.2 1.75a32 32 0 0 0-2.19 2.8" class="K"/><path d="M174.65 217.18l-3.2-1.75c.55-.63 1.12-1.2 1.72-1.75l3.2 1.75a20.34 20.34 0 0 0-1.72 1.75" class="L"/><path d="M176.37 215.43l-3.2-1.75c.55-.5 1.14-.96 1.75-1.4l3.22 1.75c-.62.43-1.2.9-1.76 1.4" class="C"/><path d="M178.13 214.04l-3.22-1.75c.73-.5 1.5-.95 2.32-1.34l3.22 1.75c-.83.4-1.6.84-2.32 1.34" class="B"/><path d="M180.45 212.7l-3.22-1.75a19.4 19.4 0 0 1 5.64-1.61c2.08-.3 4-.2 5.67.23l3.22 1.75a14.6 14.6 0 0 0-5.67-.23c-2.17.3-4.02.85-5.64 1.6" class="G"/><path d="M191.76 211.32l-3.22-1.75c.74.2 1.44.45 2.1.77l3.2 1.75c-.64-.32-1.34-.58-2.08-.77" class="B"/><path d="M193.84 212.1l-3.2-1.75.37.2 3.22 1.75a9.65 9.65 0 0 0-.38-.2" class="C"/><path d="M199.27 248.13l.02-8.3-14.98 2.1 6.5-5.8c5.52-5.07 8.15-8.52 8.16-14.4.01-7.2-5.3-11.38-12.9-10.32-7 1-10.65 4.56-14.23 10l6.4 4.85c2.9-3.98 4.77-5.52 7.06-5.84 2.5-.35 4.1 1 4.1 3.47 0 2.3-1.22 4.3-4.63 7.67l-13.23 12.74-.01 7.72 27.73-3.9m-13.96-6.67l14.3-2v8.97l-28.37 4 .02-8.24 13.34-12.85c3.33-3.28 4.5-5.2 4.5-7.38 0-2.3-1.44-3.5-3.78-3.18-2.2.3-4.02 1.84-6.93 5.83l-.1.14-6.86-5.2.1-.15c3.66-5.6 7.37-9.3 14.57-10.3 7.78-1.1 13.2 3.22 13.2 10.5-.02 6.1-2.8 9.75-8.3 14.8z" class="E"/><path d="M186.08 211.42c7.6-1.06 12.9 3.13 12.9 10.2-.01 6-2.64 9.44-8.16 14.5l-6.5 5.8 14.98-2.1-.01 8.3-27.74 3.9.01-7.73 13.23-12.74c3.4-3.37 4.62-5.37 4.63-7.67 0-2.46-1.6-3.82-4.1-3.47-2.3.32-4.15 1.86-7.07 5.84l-6.4-4.84c3.58-5.45 7.23-9.02 14.23-10" class="H"/><path d="M178.28 226.74l-3.22-1.75-6.86-5.2 3.22 1.75z" class="M"/><path fill="#19688a" d="M171.42 221.54l-3.22-1.75.1-.15 3.2 1.75z"/><path d="M156.43 254.5l-3.2-1.76.05-28.6 3.22 1.75z" class="F"/><path d="M159.2 215.25l-3.22-1.75 7.3-1.03 3.2 1.75z" class="D"/><path d="M166.18 214.6l-.07 38.2-9.36 1.3.05-28.68-6.02 2.33-1.78-7.62 10.22-4.56z" class="H"/><path fill="#1d789f" d="M148.62 219.96l-3.2-1.75 10.57-4.7 3.22 1.75z"/><path d="M150.55 228.2l-3.22-1.75-1.92-8.24 3.2 1.75z" class="M"/><path d="M166.1 252.8l.08-38.2-6.96.98-10.22 4.56 1.78 7.62 6.02-2.33-.05 28.68 9.36-1.3m-6.9-37.55l7.3-1.03-.08 38.87-10 1.4.06-28.6-5.94 2.3-1.93-8.25z" class="E"/><path d="M246.16 171.7l-3.22-1.75v-.1l3.22 1.74z" class="F"/><path d="M240.68 177.28l-3.2-1.75a8 8 0 0 0 2.3-.66l3.2 1.75a8 8 0 0 1-2.3.66" class="G"/><path d="M242.98 176.62l-3.2-1.75c.3-.15.6-.32.9-.5l3.2 1.75a6.3 6.3 0 0 1-.89.5" class="B"/><path d="M243.87 176.1l-3.2-1.74c.2-.14.4-.3.57-.45l3.2 1.75a5.39 5.39 0 0 1-.57.45" class="C"/><path d="M244.44 175.66l-3.2-1.75.42-.43 3.22 1.75c-.13.15-.28.3-.43.43" class="L"/><path d="M244.87 175.23l-3.22-1.75c.13-.14.25-.3.36-.45l3.2 1.75c-.1.16-.22.3-.35.45" class="K"/><path d="M245.22 174.78l-3.2-1.75c.1-.16.2-.33.3-.5l3.23 1.74c-.1.18-.2.35-.32.5" class="J"/><path d="M245.54 174.27l-3.22-1.74c.1-.2.2-.43.3-.66l3.2 1.75c-.07.23-.17.44-.28.65" class="P"/><path d="M245.83 173.62l-3.22-1.75a5.38 5.38 0 0 0 .33-1.9l3.22 1.74a5.63 5.63 0 0 1-.33 1.91m.33-2.02l-3.22-1.75c0-1.77-.62-3-1.8-3.65l3.2 1.75c1.2.65 1.82 1.88 1.82 3.65" class="I"/><path d="M236.18 177.92l-3.22-1.75 4.5-.64 3.22 1.75z" class="D"/><path d="M241.43 158.17l-3.22-1.75c2.6-.37 4.93-.28 6.93.24l3.2 1.75c-2-.52-4.32-.6-6.92-.24" class="G"/><path d="M248.35 158.4l-3.2-1.74c.8.2 1.55.48 2.24.82l3.22 1.75c-.7-.34-1.44-.62-2.25-.82" class="B"/><path d="M250.6 159.23l-3.22-1.75.38.2 3.22 1.75-.38-.2" class="C"/><path d="M246.16 171.7v-.1c0-3.14-1.95-4.6-5.5-4.1l-4.45.63-.02 9.77 4.5-.64c3.37-.47 5.47-2.6 5.48-5.57m-5.5-4.53c3.7-.52 5.83 1.07 5.82 4.38v.1c0 3.13-2.28 5.47-5.8 5.96l-4.8.68.02-10.45z" class="E"/><path d="M246.47 171.67v-.1c0-3.3-2.12-4.9-5.82-4.38l-4.76.67-.02 10.45 4.8-.68c3.5-.5 5.78-2.83 5.8-5.95m-5.04-13.17c9-1.26 14.57 3.04 14.55 11.23-.02 8.5-5.8 14.53-15.1 15.83l-5.02.7-.02 10.94-9.5 1.34.06-37.92z" class="H"/><path d="M255.98 169.84c.02-8.3-5.56-12.6-14.55-11.34l-15.04 2.12-.07 37.92 9.5-1.34.02-10.93 5.02-.7c9.3-1.3 15.1-7.34 15.1-15.73m-14.55-11.67c9.18-1.3 14.88 3.12 14.86 11.52-.01 8.7-5.92 14.88-15.42 16.2l-4.7.66-.03 10.93-10.13 1.43.07-38.6z" class="E"/><path d="M226 198.92l-3.2-1.75.06-38.6 3.22 1.75z" class="F"/><path d="M226.08 160.32l-3.22-1.75 15.35-2.15 3.22 1.75z" class="D"/><path d="M209.96 201.17l-3.22-1.74.04-21.58 3.22 1.75z" class="F"/><path d="M209.5 162.65l-3.22-1.74 10.63-1.5 3.2 1.75z" class="D"/><path fill="#186586" d="M201.1 178.5l-3.22-1.75 8.4-15.83 3.2 1.74z"/><path d="M200.77 195.47l-3.2-1.75-8.75-13.23 3.22 1.75z" class="M"/><path d="M219.8 161.54l-.07 37.92-9.46 1.33.04-22.37-9.33 16.68-9.26-13.95-.04 22.26-9.3 1.3.06-37.92 10.13-1.42 8.52 13.76 8.57-16.16z" class="H"/><path d="M182.13 166.5l-3.22-1.75 10.63-1.5 3.2 1.76z" class="D"/><path d="M182.06 205.1l-3.22-1.75.07-38.6 3.22 1.75z" class="F"/><path d="M219.73 199.46l.07-37.92-10.14 1.43-8.57 16.16-8.52-13.76-10.13 1.42-.07 37.92 9.3-1.3.05-22.26 9.22 13.96 9.37-16.7-.04 22.37 9.46-1.33m-10.24-36.8l10.62-1.5-.07 38.6-10.08 1.42.04-21.58-8.85 15.82-.38.05-8.74-13.23-.04 21.46-9.93 1.4.07-38.6 10.62-1.5 8.34 13.5z" class="E"/><path d="M168.13 207.05l-3.22-1.75-2.57-6.47 3.22 1.75z" class="M"/><path d="M155.13 193.46l-3.22-1.75 7.5-1.05 3.2 1.75z" class="D"/><path d="M162.62 192.4l-3.22-1.74-3.7-9.72 3.2 1.75z" class="M"/><path d="M154.66 193.86l8.42-1.18-4.16-10.92-4.26 12.1m9-24.7l14.88 36.1-10.2 1.42-2.57-6.46-13.88 1.95-2.55 7.18-9.98 1.4 15.03-40.3z" class="H"/><path d="M155.13 193.46l7.5-1.05-3.7-9.72-3.8 10.77m-.46.4l4.26-12.1 4.16 10.92z" class="E"/><path d="M138.9 211.16l-3.22-1.75.1-.24 3.22 1.75z" class="J"/><path d="M165.77 200.22l2.57 6.46 10.2-1.43-14.9-36.1-9.25 1.3-15.03 40.3 9.98-1.4 2.55-7.2 13.88-1.94m-1.9-31.43L179 205.52l-10.88 1.53-2.57-6.47-13.46 1.9-2.54 7.18-10.67 1.5.1-.24 15.2-40.77z" class="E"/><path d="M154.18 170.15l-3.22-1.75 9.68-1.36 3.22 1.75z" class="D"/><path fill="#176180" d="M138.98 210.92l-3.22-1.75 15.2-40.77 3.22 1.75z"/><path fill="#19698b" d="M130.57 198.5l-3.22-1.75.1-.13 3.2 1.75z"/><path d="M130.43 187.56l-3.22-1.75-.1-.12 3.23 1.75z" class="M"/><path d="M118.48 203.5l-3.2-1.75.23.12 3.22 1.75a7.37 7.37 0 0 1-.24-.12" class="C"/><path d="M118.72 203.6l-3.22-1.74c.4.2.8.34 1.22.45l3.22 1.75a6.12 6.12 0 0 1-1.22-.45" class="B"/><path d="M119.94 204.06l-3.22-1.75c.85.22 1.77.27 2.75.14a9.5 9.5 0 0 0 2.75-.8l3.2 1.74c-.82.4-1.72.66-2.75.8-.97.14-1.9.1-2.74-.13" class="G"/><path d="M125.43 203.4l-3.2-1.76c.46-.2.9-.47 1.3-.75l3.22 1.75c-.4.28-.84.54-1.3.75" class="B"/><path d="M126.74 202.64l-3.22-1.75c.37-.26.72-.53 1.06-.84l3.21 1.75c-.33.3-.68.58-1.05.84" class="C"/><path d="M127.8 201.8l-3.22-1.75 1.1-1.1 3.2 1.74c-.35.4-.7.77-1.1 1.1" class="L"/><path d="M128.88 200.7l-3.2-1.76c.53-.6 1.04-1.27 1.54-2l3.22 1.75c-.5.72-1 1.4-1.55 2" class="K"/><path d="M130.43 198.7l-3.22-1.75.14-.2 3.22 1.75-.14.2" class="J"/><path d="M130.34 187.44l-3.22-1.75a10.36 10.36 0 0 0-2.98-2.6l3.2 1.76c1.04.57 2.02 1.42 3 2.6m-18.03 25.14l-3.2-1.75a14.81 14.81 0 0 1-3-2.15c-3.46-3.2-5.37-8.02-5.36-13.54l3.22 1.75c-.01 5.52 1.9 10.33 5.36 13.54a14.8 14.8 0 0 0 3 2.15" class="I"/><path d="M122.84 174.4c6.42-.9 11.27.97 14.8 5.7l-7.16 6.98c-2.3-2.73-4.7-3.76-7.76-3.33-4.9.7-8.62 5.63-8.63 11.5-.01 6.03 3.68 9.97 8.6 9.28 3.7-.52 5.9-2.65 8.03-5.7l7.13 4.48c-3.97 6.38-8.76 9.66-15.5 10.6-10.32 1.45-18.1-5.88-18.08-17.07.02-11.35 8-20.95 18.57-22.43" class="H"/><path d="M103.96 196.9l-3.22-1.75c0-2.92.53-5.72 1.48-8.3l3.22 1.75a24.17 24.17 0 0 0-1.48 8.3" class="I"/><path d="M105.44 188.6l-3.22-1.75a24 24 0 0 1 1.37-3.05l3.22 1.75c-.53.97-1 2-1.37 3.05" class="P"/><path d="M106.8 185.54l-3.2-1.75c.44-.82.92-1.6 1.45-2.35l3.22 1.75c-.53.75-1 1.53-1.45 2.35" class="J"/><path d="M108.26 183.2l-3.22-1.75 1.6-2.02 3.2 1.75a22.33 22.33 0 0 0-1.58 2.02" class="K"/><path d="M109.85 181.17l-3.22-1.75a22.5 22.5 0 0 1 1.81-1.84l3.22 1.75c-.64.58-1.24 1.19-1.81 1.84" class="L"/><path d="M111.66 179.33l-3.22-1.75c.7-.62 1.44-1.2 2.2-1.74l3.22 1.75c-.77.53-1.5 1.12-2.2 1.74" class="C"/><path d="M113.86 177.6l-3.2-1.76c.96-.66 1.98-1.25 3.04-1.75l3.2 1.75c-1.06.5-2.08 1.1-3.04 1.75" class="B"/><path d="M116.9 175.84l-3.21-1.75a20.66 20.66 0 0 1 5.93-1.77 18.2 18.2 0 0 1 7.15.27l3.21 1.75a18.2 18.2 0 0 0-7.14-.27c-2.1.3-4.08.9-5.94 1.77" class="G"/><path d="M129.98 174.34l-3.21-1.75c.9.23 1.76.55 2.57.95l3.22 1.75c-.82-.4-1.68-.72-2.58-.95" class="B"/><path d="M132.56 175.3l-3.22-1.75.5.25 3.2 1.75-.48-.25" class="C"/><path d="M122.36 213.9c6.73-.94 11.52-4.22 15.5-10.6l-7.14-4.5c-2.14 3.06-4.33 5.2-8.04 5.7-4.9.7-8.6-3.25-8.6-9.17.02-5.98 3.73-10.92 8.64-11.6 3.07-.44 5.47.6 7.76 3.32l7.17-6.98c-3.54-4.74-8.4-6.6-14.8-5.7-10.56 1.5-18.55 11.1-18.57 22.33-.02 11.3 7.76 18.63 18.1 17.18m8.3-15.54l7.63 4.8-.1.15c-4.05 6.6-8.93 9.96-15.83 10.93-5 .7-9.62-.66-13.04-3.82-3.47-3.2-5.37-8.02-5.36-13.54.02-11.55 8.14-21.3 18.88-22.82 6.6-.93 11.54 1 15.15 5.92l.1.12-7.65 7.45-.1-.12c-2.25-2.74-4.6-3.77-7.6-3.34-4.73.66-8.3 5.43-8.32 11.1-.01 5.84 3.55 9.66 8.28 9 3.64-.52 5.78-2.65 7.9-5.7z" class="E"/><path d="M235.4 153.86l-3.22-1.75.06-28.96 3.2 1.75z" class="F"/><path d="M255.9 121.68l.02-8.95-30.78 4.33-.02 8.95 10.64-1.5-.06 28.97 9.52-1.33.05-28.97 10.63-1.5m-31.07-4.92l31.4-4.4-.01 9.63-10.64 1.5-.05 28.96-10.14 1.42.05-28.96-10.63 1.5z" class="E"/><path d="M255.92 112.73l-.02 8.95-10.63 1.5-.05 28.97-9.52 1.33.06-28.96-10.64 1.5.02-8.95z" class="H"/><path d="M224.8 126.4l-3.2-1.76V115l3.22 1.75z" class="F"/><path d="M224.83 116.76L221.6 115l31.4-4.4 3.22 1.75z" class="D"/><path d="M211.66 157.2l-3.2-1.75-7.14-10.58 3.22 1.75z" class="M"/><path d="M211.94 132.57l-3.22-1.75v-.1l3.22 1.75z" class="F"/><path d="M206.82 137.65l-3.2-1.75a7.81 7.81 0 0 0 2.23-.64l3.22 1.75c-.65.3-1.4.53-2.24.64" class="G"/><path d="M209.06 137l-3.22-1.75c.3-.14.58-.3.83-.47l3.22 1.75c-.26.17-.53.33-.83.47" class="B"/><path d="M209.9 136.54l-3.22-1.75.52-.4 3.2 1.74a3.9 3.9 0 0 1-.51.4" class="C"/><path d="M210.4 136.13l-3.2-1.75.38-.38 3.22 1.75c-.12.13-.25.26-.4.38" class="L"/><path d="M210.8 135.75l-3.22-1.75.32-.4 3.2 1.75-.3.4" class="K"/><path d="M211.1 135.35l-3.2-1.75.27-.45 3.22 1.75c-.08.15-.18.3-.28.45" class="J"/><path d="M211.38 134.9l-3.22-1.75c.1-.2.2-.4.27-.6l3.2 1.76c-.07.2-.16.4-.26.58" class="P"/><path d="M211.64 134.3l-3.2-1.74a4.93 4.93 0 0 0 .3-1.74l3.2 1.75a4.97 4.97 0 0 1-.3 1.74m.3-1.85l-3.22-1.75c0-1.57-.56-2.66-1.63-3.25l3.22 1.75c1.07.6 1.63 1.68 1.63 3.25" class="I"/><path d="M200.5 138.54l-3.22-1.75 6.33-.9 3.2 1.75z" class="D"/><path d="M207.3 119.23l-3.2-1.75c2.8-.4 5.23-.33 7.28.2l3.2 1.75a18.8 18.8 0 0 0-7.28-.2" class="G"/><path d="M214.6 119.43l-3.22-1.75c.74.2 1.43.45 2.07.76l3.22 1.75c-.64-.31-1.33-.57-2.08-.76" class="B"/><path d="M216.67 120.2l-3.22-1.75.36.18 3.2 1.75a9.06 9.06 0 0 0-.35-.18" class="C"/><path d="M211.94 132.57v-.1c0-2.82-1.82-4.1-5.15-3.64l-6.28.88v8.84l6.32-.9c3.2-.45 5.1-2.35 5.12-5.08m-5.15-4.1c3.48-.48 5.47.95 5.46 3.94v.1c0 2.95-2.03 5-5.43 5.47l-6.64.94v-9.53zm-2.1 17.78l7.12 10.6 10.96-1.54-8.37-12.06.18-.1c4.7-2.82 7.2-7.18 7.2-12.6.01-3.78-1.02-6.6-3.07-8.47-2.47-2.38-6.3-3.22-11.43-2.5l-16.6 2.34-.07 37.92 9.5-1.34.03-11.6 4.54-.64m10.18-2.93l8.5 12.23-11.73 1.65-7.13-10.58-4.05.57-.02 11.58-10.14 1.43.08-38.6 16.9-2.37c5.2-.74 9.13.13 11.65 2.56 2.1 1.93 3.18 4.82 3.17 8.58a14.5 14.5 0 0 1-7.24 12.95" class="E"/><path d="M212.25 132.52v-.1c.01-3-1.98-4.43-5.46-3.94l-6.6.92-.02 9.53 6.64-.94c3.4-.48 5.43-2.52 5.43-5.47m2.17 10.72l8.37 12.06-10.96 1.54-7.12-10.6-4.54.64-.02 11.6-9.5 1.34.07-37.92 16.6-2.34c5.12-.72 8.96.12 11.43 2.5 2.05 1.87 3.08 4.7 3.08 8.35-.02 5.54-2.5 9.9-7.22 12.72z" class="H"/><path d="M190.32 160.2l-3.2-1.75.07-38.6 3.22 1.75z" class="F"/><path d="M190.4 121.6l-3.22-1.75 16.92-2.37 3.2 1.75z" class="D"/><path d="M176.4 162.16l-3.22-1.75-2.57-6.47 3.22 1.75z" class="M"/><path d="M163.4 148.56l-3.22-1.75 7.5-1.05 3.22 1.75z" class="D"/><path d="M170.9 147.5l-3.22-1.75-3.7-9.72 3.2 1.75z" class="M"/><path d="M163.4 148.56l7.5-1.05-3.7-9.72-3.8 10.77m-.46.4l4.26-12.1 4.16 10.92z" class="E"/><path d="M147.15 166.27l-3.2-1.75.1-.25 3.2 1.75z" class="J"/><path d="M162.93 148.97l8.42-1.2-4.16-10.9-4.26 12.1m8.98-24.7l14.9 36.1-10.2 1.43-2.57-6.47-13.88 1.95-2.55 7.2-9.98 1.4 15.02-40.3z" class="H"/><path d="M174.04 155.32l2.57 6.47 10.2-1.43-14.9-36.1-9.26 1.3-15.02 40.3 9.98-1.4 2.55-7.2 13.88-1.94m-1.92-31.42l15.16 36.73-10.88 1.53-2.57-6.47-13.46 1.9-2.55 7.2-10.67 1.5.1-.25 15.2-40.76z" class="E"/><path d="M162.45 125.26l-3.22-1.75 9.68-1.36 3.2 1.75z" class="D"/><path fill="#176180" d="M147.24 166.02l-3.2-1.75 15.2-40.76 3.22 1.75z"/><path d="M134.02 168.1l-3.22-1.75.04-21.57 3.22 1.75z" class="F"/><path d="M133.55 129.6l-3.22-1.76 10.63-1.5 3.22 1.76z" class="D"/><path fill="#186586" d="M125.15 145.42l-3.2-1.75 8.4-15.83 3.2 1.75z"/><path d="M124.83 162.4l-3.2-1.75-8.75-13.24 3.22 1.75z" class="M"/><path d="M143.86 128.48l-.07 37.92-9.46 1.33.04-22.37-9.33 16.68-9.26-13.96-.04 22.26-9.3 1.3.07-37.92 10.14-1.42 8.5 13.76 8.57-16.16z" class="H"/><path d="M106.2 133.44l-3.22-1.75 10.63-1.5 3.2 1.75z" class="D"/><path d="M106.12 172.03l-3.22-1.75.07-38.6 3.22 1.76z" class="F"/><path d="M143.8 166.4l.07-37.92-10.14 1.43-8.57 16.16-8.5-13.76-10.14 1.42-.07 37.92 9.3-1.3.05-22.27 9.23 13.96 9.36-16.68-.04 22.37 9.46-1.33m-10.24-36.8l10.63-1.5-.08 38.6-10.08 1.4.04-21.57-8.85 15.82-.38.05-8.74-13.24-.04 21.47-9.93 1.4.07-38.6 10.62-1.5 8.34 13.48z" class="E"/><path d="M91.45 163.16l-3.22-1.75c0-.73-.2-1.28-1-1.72l3.2 1.75c.8.44 1.02 1 1.02 1.72" class="I"/><path d="M88.38 150.37l-3.22-1.75c2.05.2 3.92.47 5.57.9l3.22 1.75c-1.66-.43-3.53-.7-5.57-.9" class="G"/><path d="M93.95 151.27l-3.22-1.75c1.1.28 2.08.63 2.96 1.06l3.22 1.75c-.88-.44-1.88-.78-2.96-1.06" class="B"/><path d="M96.9 152.33l-3.22-1.75.43.22 3.22 1.75-.43-.22m-18.8 12.1l-3.22-1.75.6.3 3.23 1.75-.6-.3" class="C"/><path d="M78.72 164.75L75.5 163c.96.47 1.93.84 2.93 1.1l3.22 1.75c-1-.26-1.98-.63-2.93-1.1" class="B"/><path d="M81.65 165.85l-3.22-1.75a15 15 0 0 0 5.9.31 7.41 7.41 0 0 0 2.11-.58l3.22 1.75a7.4 7.4 0 0 1-2.1.58 15 15 0 0 1-5.91-.31" class="G"/><path d="M89.66 165.58l-3.22-1.75c.23-.1.44-.23.62-.35l3.22 1.75c-.2.12-.4.24-.62.35" class="B"/><path d="M90.28 165.23l-3.22-1.75.34-.27 3.22 1.75c-.1.1-.22.18-.34.27" class="C"/><path d="M90.62 164.96l-3.22-1.75.23-.24 3.22 1.75-.23.24" class="L"/><path d="M90.85 164.72l-3.22-1.75c.07-.07.13-.14.18-.22l3.22 1.75c-.05.08-.11.15-.18.22" class="K"/><path d="M91.03 164.5l-3.22-1.75.15-.24 3.22 1.75-.15.24" class="J"/><path d="M91.18 164.26l-3.22-1.75c.05-.1.1-.2.13-.3l3.22 1.75-.13.3" class="P"/><path d="M91.31 163.96l-3.22-1.75c.1-.25.14-.52.14-.8l3.22 1.75c0 .28-.05.55-.14.8" class="I"/><path d="M83.37 149.33l-3.22-1.75.12.06 3.22 1.75a3.22 3.22 0 0 1-.12-.06" class="C"/><path d="M83.5 149.4l-3.22-1.76c.3.15.67.28 1.12.4l3.22 1.74a5.9 5.9 0 0 1-1.12-.39" class="B"/><path d="M84.6 149.78l-3.2-1.75c.88.23 2.1.42 3.76.6l3.22 1.75a27.3 27.3 0 0 1-3.77-.59" class="G"/><path d="M73.27 173.2l-3.2-1.75c-1-.54-1.93-1.17-2.8-1.9l3.22 1.75c.86.72 1.8 1.35 2.8 1.9" class="I"/><path d="M70.37 171.22l-3.22-1.75 5.68-8.1 3.2 1.75z" class="C"/><path d="M70.48 171.3l-3.22-1.75-.1-.1 3.2 1.75z" class="M"/><g class="I"><path d="M76.5 158.18l-3.22-1.75c-2.64-1.44-4.36-3.84-4.35-8.1l3.22 1.75c0 4.26 1.7 6.66 4.35 8.1"/><path d="M72.14 150.08l-3.22-1.75c0-1.71.3-3.34.85-4.84l3.21 1.75c-.55 1.5-.84 3.13-.84 4.84"/></g><path d="M72.98 145.24l-3.21-1.75c.22-.6.48-1.19.78-1.75l3.22 1.75c-.3.56-.57 1.15-.79 1.75" class="P"/><path d="M73.77 143.5l-3.22-1.76c.25-.47.54-.93.84-1.37l3.22 1.75-.84 1.37" class="J"/><path d="M74.61 142.12l-3.22-1.75c.3-.42.62-.83.96-1.21l3.22 1.75c-.34.38-.66.79-.96 1.21" class="K"/><path d="M75.57 140.9l-3.22-1.74c.36-.4.75-.8 1.16-1.17l3.2 1.75-1.15 1.16" class="L"/><path d="M76.72 139.74L73.51 138c.47-.42.98-.82 1.52-1.2l3.21 1.76c-.54.37-1.04.77-1.52 1.2" class="C"/><path d="M78.24 138.55l-3.21-1.75c.72-.5 1.5-.95 2.32-1.34l3.22 1.75c-.83.39-1.6.84-2.33 1.34" class="B"/><path d="M80.57 137.2l-3.22-1.75a19.07 19.07 0 0 1 5.47-1.6 22.7 22.7 0 0 1 8.91.34l3.22 1.75a22.7 22.7 0 0 0-8.91-.34c-2 .28-3.83.83-5.47 1.6" class="G"/><path d="M94.95 135.95l-3.22-1.75c1.14.3 2.22.7 3.25 1.2l3.22 1.75c-1.03-.5-2.11-.91-3.25-1.2" class="B"/><path d="M98.2 137.15l-3.22-1.75.6.3 3.22 1.75-.6-.3" class="C"/><path d="M101.38 160.73c.01-7.3-5.22-9.28-13.07-10.02-4.97-.52-6.25-1.14-6.25-3 0-1.38.98-2.88 3.7-3.26 3.2-.45 6.7.37 9.9 2.3l4.75-7.88c-3.9-2.78-8.6-3.74-14.36-2.93-8.1 1.14-13.57 6.76-13.6 13.98-.01 8.06 5.98 9.34 13.22 10.1 4.68.52 6.1 1.2 6.1 2.98 0 1.88-1.54 3.1-4.22 3.5-4.07.57-7.93-.4-11.46-2.9l-5.3 7.54c4.2 3.4 10 4.78 16.38 3.88 8.74-1.23 14.18-6.7 14.2-14.28m-13-10.36c8 .75 13.33 2.78 13.3 10.2-.01 7.9-5.57 13.52-14.5 14.78-6.53.92-12.46-.52-16.7-4.04l-.1-.1 5.67-8.1.13.1a15.29 15.29 0 0 0 11.38 2.95c2.48-.35 3.9-1.44 3.9-3 0-1.5-.87-2.24-5.85-2.78-7.1-.76-13.48-2.1-13.46-10.3.01-7.53 5.6-13.3 13.9-14.47 5.9-.83 10.7.17 14.67 3.06l.12.08-5.1 8.47-.13-.08c-3.18-1.96-6.67-2.8-9.83-2.35-2.1.3-3.4 1.35-3.4 2.76 0 1.65.9 2.3 6 2.82" class="E"/><path d="M86.04 135.95c5.77-.8 10.47.15 14.36 2.93l-4.75 7.88c-3.2-1.94-6.7-2.76-9.88-2.3-2.73.38-3.7 1.88-3.7 3.15 0 1.97 1.27 2.6 6.24 3.1 7.85.75 13.08 2.72 13.07 9.92-.02 7.7-5.46 13.16-14.2 14.4-6.38.9-12.2-.5-16.38-3.9l5.3-7.53a15.54 15.54 0 0 0 11.46 2.91c2.68-.38 4.2-1.6 4.22-3.38 0-1.88-1.42-2.57-6.1-3.08-7.24-.77-13.23-2.05-13.22-10 .02-7.33 5.48-12.95 13.6-14.1" class="H"/><path d="M116.06 100.7l-3.22-1.74 32.93-4.63 3.22 1.75zm.04-24.95L112.9 74l29.43-4.13 3.2 1.75z" class="D"/><path d="M148.33 45.95l-.03 15.26-32.5 4.57v10.36L145.22 72l-.03 14.13-29.43 4.13-.02 10.84 32.94-4.63-.03 15.25-49.44 6.95.13-65.83z" class="H"/><path d="M98.9 119.06l-3.22-1.75.13-66.52 3.2 1.75z" class="F"/><path d="M99.02 52.54l-3.2-1.75 49.62-6.97 3.22 1.75z" class="D"/><path d="M148.65 111.72l.03-15.25-32.94 4.63.02-10.84 29.43-4.13.03-14.13-29.43 4.14V65.78l32.5-4.57.02-15.26-49 6.9-.12 65.83 49.44-6.95m-32.6-11L149 96.08l-.03 15.94-50.06 7.04.12-66.52 49.63-6.97-.03 15.94-32.5 4.56-.01 9.68 29.43-4.13-.03 14.8-29.43 4.14z" class="E"/><path d="M57.86 106.8l-3.2-1.75c.13.08.27.15.4.2l3.22 1.75-.4-.2" class="C"/><path d="M58.27 107.02l-3.21-1.75c.67.34 1.38.6 2.12.8l3.22 1.74a11.1 11.1 0 0 1-2.13-.79" class="B"/><path d="M60.4 107.8l-3.22-1.75c1.5.38 3.1.48 4.8.24 1.78-.25 3.36-.73 4.8-1.4l3.2 1.75a16.59 16.59 0 0 1-4.8 1.4c-1.7.24-3.3.14-4.78-.24" class="G"/><path d="M70 106.65l-3.22-1.75a16.1 16.1 0 0 0 2.28-1.32l3.2 1.75c-.7.5-1.47.94-2.27 1.32" class="B"/><path d="M72.26 105.33l-3.2-1.75a19.07 19.07 0 0 0 1.83-1.45l3.2 1.75c-.58.53-1.2 1-1.83 1.45" class="C"/><path d="M74.1 103.88l-3.22-1.75c.66-.6 1.29-1.24 1.9-1.93l3.21 1.75c-.6.7-1.24 1.34-1.9 1.93" class="L"/><path d="M76 101.95l-3.22-1.75c.92-1.05 1.8-2.2 2.68-3.45l3.22 1.75a39.32 39.32 0 0 1-2.69 3.45" class="K"/><path d="M78.68 98.5l-3.22-1.75.24-.35 3.22 1.75-.24.35" class="J"/><path d="M78.6 78.97l-3.2-1.75a18.5 18.5 0 0 0-5.32-4.63l3.22 1.75c1.84 1 3.58 2.53 5.3 4.63M47.3 122.3l-3.2-1.74a25.4 25.4 0 0 1-5.16-3.7c-5.97-5.54-9.25-13.83-9.24-23.34l3.22 1.75c-.02 9.5 3.26 17.8 9.24 23.34 1.58 1.46 3.3 2.7 5.15 3.7" class="I"/><path d="M64.63 124.85c11.73-1.64 20.05-7.36 26.96-18.5l-12.52-7.9c-3.7 5.3-7.48 9.03-13.88 9.93-4.16.58-7.94-.72-10.64-3.68-2.66-2.9-4.12-7.2-4.1-12.1.02-10.25 6.4-18.73 14.8-19.92 5.3-.74 9.45 1.05 13.4 5.8l12.57-12.24c-6.15-8.28-14.58-11.55-25.77-9.97-18.34 2.57-32.2 19.24-32.23 38.76-.03 19.6 13.46 32.34 31.4 29.8m14.3-26.7l13.1 8.05c-7.1 11.5-15.5 17.32-27.4 19-8.6 1.2-16.58-1.14-22.47-6.6-5.98-5.53-9.26-13.82-9.24-23.33a41 41 0 0 1 9.29-26.04 36.87 36.87 0 0 1 23.25-13.3c11.35-1.6 19.9 1.74 26.1 10.2L78.6 78.98c-4.03-4.88-8.12-6.67-13.36-5.94C57 74.2 50.77 82.52 50.75 92.4c-.02 10.18 6.2 16.83 14.44 15.67 6.33-.9 10.07-4.6 13.73-9.9" class="E"/><path d="M32.92 95.27l-3.22-1.75c.01-4.94.88-9.76 2.54-14.26L35.46 81a41.54 41.54 0 0 0-2.54 14.26" class="I"/><path d="M35.46 81l-3.22-1.75a40.7 40.7 0 0 1 2.36-5.24l3.2 1.75c-.9 1.7-1.7 3.44-2.35 5.24" class="P"/><path d="M37.8 75.77l-3.2-1.75a40.2 40.2 0 0 1 2.5-4.06l3.22 1.75a40.36 40.36 0 0 0-2.5 4.06" class="J"/><path d="M40.32 71.7l-3.22-1.74a40.22 40.22 0 0 1 2.77-3.51l3.2 1.75a38.95 38.95 0 0 0-2.76 3.5" class="K"/><path d="M43.08 68.2l-3.21-1.75A39.1 39.1 0 0 1 43 63.27l3.22 1.75c-1.1 1-2.15 2.05-3.15 3.18" class="L"/><path d="M46.23 65.02L43 63.27a38.03 38.03 0 0 1 3.8-3L50.04 62c-1.32.92-2.6 1.92-3.8 3" class="C"/><path d="M50.03 62l-3.2-1.75a36.84 36.84 0 0 1 5.24-3.02L55.28 59A36.8 36.8 0 0 0 50.03 62" class="B"/><path d="M55.28 59l-3.22-1.75a35.43 35.43 0 0 1 10.18-3.05 31.4 31.4 0 0 1 12.32.46l3.22 1.75a31.4 31.4 0 0 0-12.32-.46c-3.54.5-6.96 1.53-10.18 3.05" class="G"/><path d="M77.78 56.4l-3.22-1.75c1.55.4 3.03.95 4.44 1.65l3.22 1.75c-1.4-.7-2.9-1.24-4.44-1.65" class="B"/><path d="M82.22 58.05L79 56.3l.84.43 3.2 1.75-.83-.43" class="C"/><path d="M65.46 56.28c11.2-1.58 19.62 1.7 25.77 9.97L78.66 78.5c-3.96-4.75-8.1-6.54-13.4-5.8-8.43 1.2-14.8 9.67-14.82 19.74-.01 5.08 1.45 9.38 4.1 12.28a11.78 11.78 0 0 0 10.65 3.68c6.4-.9 10.2-4.62 13.88-9.93l12.52 7.88c-6.9 11.15-15.23 16.87-26.96 18.5-17.94 2.53-31.43-10.2-31.4-29.62.04-19.7 13.9-36.38 32.23-38.95" class="H"/></svg>